# xmcd
# 
# Track frame offsets:
#     150
#     19682
#     37615
#     59985
#     76175
#     92532
#     107375
#     121735
#     138810
#     153507
# 
# Disc length: 2240
# 
# Revision: 8
# Processed by: cddbd v1.5.2PL0 Copyright (c) Steve Scherf et al.
# Submitted via: fre:ac v1.1beta1pre3
# 
DISCID=6a08be0a
DTITLE=Reba McEntire - Greatest Hits Volume Two
DYEAR=1993
DGENRE=Country
TTITLE0=Does He Love You Featuring Linda Davis
TTITLE1=You Lie
TTITLE2=Fancy
TTITLE3=For My Broken Heart
TTITLE4=Love Will Find Its Way To You
TTITLE5=They Asked About You
TTITLE6=Is There Life Out There
TTITLE7=Rumor Has It
TTITLE8=Walk On
TTITLE9=The Greatest Man I Never Knew
EXTD=YEAR: 1993
EXTT0=
EXTT1=
EXTT2=
EXTT3=
EXTT4=
EXTT5=
EXTT6=
EXTT7=
EXTT8=
EXTT9=
PLAYORDER=
